<mxfile host="app.diagrams.net" agent="Mozilla/5.0 (Windows NT 10.0; Win64; x64; rv:134.0) Gecko/20100101 Firefox/134.0" version="26.0.10">
  <diagram name="Page-1" id="brh3cflEjhPxXMnf6fBR">
    <mxGraphModel dx="1574" dy="1466" grid="1" gridSize="10" guides="1" tooltips="1" connect="1" arrows="1" fold="1" page="1" pageScale="1" pageWidth="850" pageHeight="1100" math="0" shadow="0">
      <root>
        <mxCell id="0" />
        <mxCell id="1" parent="0" />
        <mxCell id="EPe0qUNadaAKurA8GOma-1" value="" style="swimlane;startSize=0;fontFamily=Times New Roman;" parent="1" vertex="1">
          <mxGeometry x="330" y="-649" width="280" height="690" as="geometry" />
        </mxCell>
        <mxCell id="EPe0qUNadaAKurA8GOma-5" value="&lt;b&gt;members&lt;/b&gt;" style="text;html=1;align=center;verticalAlign=middle;resizable=0;points=[];autosize=1;strokeColor=none;fillColor=none;fontFamily=Times New Roman;" parent="EPe0qUNadaAKurA8GOma-1" vertex="1">
          <mxGeometry x="88" y="2" width="70" height="30" as="geometry" />
        </mxCell>
        <mxCell id="EPe0qUNadaAKurA8GOma-6" value="&lt;span style=&quot;color: light-dark(rgb(255, 0, 0), rgb(237, 237, 237));&quot;&gt;PK &lt;span style=&quot;color: light-dark(rgb(255, 0, 0), rgb(237, 237, 237));&quot;&gt;&lt;span style=&quot;color: rgb(255, 0, 0);&quot;&gt;id &lt;/span&gt;INT&lt;span style=&quot;white-space: pre;&quot;&gt;&#x9;&lt;/span&gt;&lt;/span&gt;&lt;/span&gt;" style="text;html=1;align=center;verticalAlign=middle;whiteSpace=wrap;rounded=0;fontFamily=Times New Roman;" parent="EPe0qUNadaAKurA8GOma-1" vertex="1">
          <mxGeometry x="-20" y="32" width="131" height="30" as="geometry" />
        </mxCell>
        <mxCell id="EPe0qUNadaAKurA8GOma-8" value="fname VARCHAR(50)&lt;div&gt;&lt;br&gt;&lt;/div&gt;" style="text;html=1;align=center;verticalAlign=middle;whiteSpace=wrap;rounded=0;fontFamily=Times New Roman;" parent="EPe0qUNadaAKurA8GOma-1" vertex="1">
          <mxGeometry x="-38.5" y="195" width="204.5" height="30" as="geometry" />
        </mxCell>
        <mxCell id="EPe0qUNadaAKurA8GOma-11" value="" style="endArrow=none;html=1;rounded=0;fontFamily=Times New Roman;" parent="EPe0qUNadaAKurA8GOma-1" edge="1">
          <mxGeometry width="50" height="50" relative="1" as="geometry">
            <mxPoint y="39" as="sourcePoint" />
            <mxPoint x="269" y="39" as="targetPoint" />
          </mxGeometry>
        </mxCell>
        <mxCell id="EPe0qUNadaAKurA8GOma-15" value="city VARCHAR(50)" style="text;html=1;align=center;verticalAlign=middle;whiteSpace=wrap;rounded=0;fontFamily=Times New Roman;" parent="EPe0qUNadaAKurA8GOma-1" vertex="1">
          <mxGeometry x="-26" y="395" width="171" height="30" as="geometry" />
        </mxCell>
        <mxCell id="EPe0qUNadaAKurA8GOma-24" value="joined DATE" style="text;html=1;align=center;verticalAlign=middle;whiteSpace=wrap;rounded=0;fontFamily=Times New Roman;" parent="EPe0qUNadaAKurA8GOma-1" vertex="1">
          <mxGeometry x="-37" y="68" width="161" height="30" as="geometry" />
        </mxCell>
        <mxCell id="EPe0qUNadaAKurA8GOma-23" value="expires DATE" style="text;html=1;align=center;verticalAlign=middle;whiteSpace=wrap;rounded=0;fontFamily=Times New Roman;" parent="EPe0qUNadaAKurA8GOma-1" vertex="1">
          <mxGeometry x="-40" y="48" width="168" height="30" as="geometry" />
        </mxCell>
        <mxCell id="EPe0qUNadaAKurA8GOma-25" value="lastpay DATE" style="text;html=1;align=center;verticalAlign=middle;whiteSpace=wrap;rounded=0;fontFamily=Times New Roman;" parent="EPe0qUNadaAKurA8GOma-1" vertex="1">
          <mxGeometry x="-32" y="108" width="153" height="30" as="geometry" />
        </mxCell>
        <mxCell id="EPe0qUNadaAKurA8GOma-26" value="renewed DATE" style="text;html=1;align=center;verticalAlign=middle;whiteSpace=wrap;rounded=0;fontFamily=Times New Roman;" parent="EPe0qUNadaAKurA8GOma-1" vertex="1">
          <mxGeometry x="-38" y="129" width="171" height="30" as="geometry" />
        </mxCell>
        <mxCell id="EPe0qUNadaAKurA8GOma-32" value="mailstatus CHAR(1)" style="text;html=1;align=center;verticalAlign=middle;whiteSpace=wrap;rounded=0;fontFamily=Times New Roman;" parent="EPe0qUNadaAKurA8GOma-1" vertex="1">
          <mxGeometry x="-36" y="330.5" width="193" height="29" as="geometry" />
        </mxCell>
        <mxCell id="WVBxO1W4WvaicAKb1q0A-6" value="&lt;font face=&quot;Times New Roman&quot;&gt;&lt;span style=&quot;color: light-dark(rgb(128, 0, 255), rgb(237, 237, 237));&quot;&gt;FK division INT&lt;/span&gt; (&lt;/font&gt;&lt;font face=&quot;Times New Roman&quot;&gt;REFERENCES &lt;/font&gt;&lt;font face=&quot;Times New Roman&quot;&gt;division.div_no)&lt;br&gt;&lt;/font&gt;" style="text;html=1;align=center;verticalAlign=middle;whiteSpace=wrap;rounded=0;" parent="EPe0qUNadaAKurA8GOma-1" vertex="1">
          <mxGeometry x="-1.25" y="564" width="273.25" height="30" as="geometry" />
        </mxCell>
        <mxCell id="WVBxO1W4WvaicAKb1q0A-3" value="&lt;font face=&quot;Times New Roman&quot;&gt;&lt;span style=&quot;color: light-dark(rgb(128, 0, 255), rgb(237, 237, 237));&quot;&gt;FK &lt;/span&gt;&lt;span style=&quot;color: light-dark(rgb(128, 0, 255), rgb(237, 237, 237));&quot;&gt;memtype INT&lt;/span&gt;( REFERENCES membership.code)&lt;/font&gt;" style="text;whiteSpace=wrap;html=1;fontFamily=Times New Roman;" parent="EPe0qUNadaAKurA8GOma-1" vertex="1">
          <mxGeometry x="8.75" y="311" width="265.5" height="40" as="geometry" />
        </mxCell>
        <mxCell id="tTaD2o-HrxmLArKPDHaH-6" value="&lt;font face=&quot;Times New Roman&quot;&gt;rerail DATE&lt;br&gt;&lt;/font&gt;" style="text;html=1;align=center;verticalAlign=middle;whiteSpace=wrap;rounded=0;" vertex="1" parent="EPe0qUNadaAKurA8GOma-1">
          <mxGeometry x="-15" y="87" width="112" height="30" as="geometry" />
        </mxCell>
        <mxCell id="tTaD2o-HrxmLArKPDHaH-7" value="&lt;font face=&quot;Times New Roman&quot;&gt;county VARCHAR(50)&lt;br&gt;&lt;/font&gt;" style="text;html=1;align=center;verticalAlign=middle;whiteSpace=wrap;rounded=0;" vertex="1" parent="EPe0qUNadaAKurA8GOma-1">
          <mxGeometry x="-13.5" y="476" width="163" height="30" as="geometry" />
        </mxCell>
        <mxCell id="tTaD2o-HrxmLArKPDHaH-8" value="&lt;font face=&quot;Times New Roman&quot;&gt;coutnry CHAR(3)&lt;br&gt;&lt;/font&gt;" style="text;html=1;align=center;verticalAlign=middle;whiteSpace=wrap;rounded=0;" vertex="1" parent="EPe0qUNadaAKurA8GOma-1">
          <mxGeometry x="-15.5" y="497" width="144" height="30" as="geometry" />
        </mxCell>
        <mxCell id="EPe0qUNadaAKurA8GOma-7" value="title VARCHAR(50)" style="text;html=1;align=center;verticalAlign=middle;whiteSpace=wrap;rounded=0;fontFamily=Times New Roman;" parent="EPe0qUNadaAKurA8GOma-1" vertex="1">
          <mxGeometry x="-24" y="148" width="169" height="30" as="geometry" />
        </mxCell>
        <mxCell id="EPe0qUNadaAKurA8GOma-9" value="lname VARCHAR(50)" style="text;html=1;align=center;verticalAlign=middle;whiteSpace=wrap;rounded=0;fontFamily=Times New Roman;" parent="EPe0qUNadaAKurA8GOma-1" vertex="1">
          <mxGeometry x="-28" y="168" width="186.5" height="30" as="geometry" />
        </mxCell>
        <mxCell id="EPe0qUNadaAKurA8GOma-10" value="&lt;br&gt;mname VARCHAR(50)" style="text;html=1;align=center;verticalAlign=middle;whiteSpace=wrap;rounded=0;fontFamily=Times New Roman;" parent="EPe0qUNadaAKurA8GOma-1" vertex="1">
          <mxGeometry x="-28" y="201" width="190" height="30" as="geometry" />
        </mxCell>
        <mxCell id="EPe0qUNadaAKurA8GOma-12" value="&lt;br&gt;suffix VARCHAR(10)&lt;div&gt;&lt;br&gt;&lt;/div&gt;" style="text;html=1;align=center;verticalAlign=middle;whiteSpace=wrap;rounded=0;fontFamily=Times New Roman;" parent="EPe0qUNadaAKurA8GOma-1" vertex="1">
          <mxGeometry x="-25.75" y="227" width="178.5" height="30" as="geometry" />
        </mxCell>
        <mxCell id="tTaD2o-HrxmLArKPDHaH-10" value="&lt;font face=&quot;Times New Roman&quot;&gt;name VARCHAR(50)&lt;/font&gt;" style="text;html=1;align=center;verticalAlign=middle;whiteSpace=wrap;rounded=0;" vertex="1" parent="EPe0qUNadaAKurA8GOma-1">
          <mxGeometry x="-3" y="250" width="130" height="30" as="geometry" />
        </mxCell>
        <mxCell id="tTaD2o-HrxmLArKPDHaH-11" value="&lt;font face=&quot;Times New Roman&quot;&gt;months INT&lt;br&gt;&lt;/font&gt;" style="text;html=1;align=center;verticalAlign=middle;whiteSpace=wrap;rounded=0;" vertex="1" parent="EPe0qUNadaAKurA8GOma-1">
          <mxGeometry x="-6" y="271" width="90" height="30" as="geometry" />
        </mxCell>
        <mxCell id="EPe0qUNadaAKurA8GOma-13" value="dob DATE" style="text;html=1;align=center;verticalAlign=middle;whiteSpace=wrap;rounded=0;fontFamily=Times New Roman;" parent="EPe0qUNadaAKurA8GOma-1" vertex="1">
          <mxGeometry x="-27" y="290" width="126.5" height="30" as="geometry" />
        </mxCell>
        <mxCell id="EPe0qUNadaAKurA8GOma-14" value="address1 VARCHAR(100)" style="text;html=1;align=center;verticalAlign=middle;whiteSpace=wrap;rounded=0;fontFamily=Times New Roman;" parent="EPe0qUNadaAKurA8GOma-1" vertex="1">
          <mxGeometry x="-25.75" y="351" width="200" height="30" as="geometry" />
        </mxCell>
        <mxCell id="tTaD2o-HrxmLArKPDHaH-12" value="&lt;font face=&quot;Times New Roman&quot;&gt;address2 VARCHAR(100)&lt;/font&gt;" style="text;whiteSpace=wrap;html=1;" vertex="1" parent="EPe0qUNadaAKurA8GOma-1">
          <mxGeometry x="7" y="372" width="170" height="40" as="geometry" />
        </mxCell>
        <mxCell id="EPe0qUNadaAKurA8GOma-18" value="region INT" style="text;html=1;align=center;verticalAlign=middle;whiteSpace=wrap;rounded=0;fontFamily=Times New Roman;" parent="EPe0qUNadaAKurA8GOma-1" vertex="1">
          <mxGeometry x="-53.75" y="540" width="190" height="30" as="geometry" />
        </mxCell>
        <mxCell id="EPe0qUNadaAKurA8GOma-17" value="zip VARCHAR(10)" style="text;html=1;align=center;verticalAlign=middle;whiteSpace=wrap;rounded=0;fontFamily=Times New Roman;" parent="EPe0qUNadaAKurA8GOma-1" vertex="1">
          <mxGeometry x="-22" y="434" width="162" height="30" as="geometry" />
        </mxCell>
        <mxCell id="EPe0qUNadaAKurA8GOma-16" value="state CHAR(2)" style="text;html=1;align=center;verticalAlign=middle;whiteSpace=wrap;rounded=0;fontFamily=Times New Roman;" parent="EPe0qUNadaAKurA8GOma-1" vertex="1">
          <mxGeometry x="-36.75" y="414" width="168.5" height="30" as="geometry" />
        </mxCell>
        <mxCell id="tTaD2o-HrxmLArKPDHaH-13" value="&lt;font face=&quot;Times New Roman&quot;&gt;plus4 VATCHAR(4)&lt;br&gt;&lt;/font&gt;" style="text;html=1;align=center;verticalAlign=middle;whiteSpace=wrap;rounded=0;" vertex="1" parent="EPe0qUNadaAKurA8GOma-1">
          <mxGeometry x="-1" y="454" width="123" height="30" as="geometry" />
        </mxCell>
        <mxCell id="tTaD2o-HrxmLArKPDHaH-14" value="countrydesc VARCHAR(100)" style="text;html=1;align=center;verticalAlign=middle;whiteSpace=wrap;rounded=0;fontFamily=Times New Roman;" vertex="1" parent="EPe0qUNadaAKurA8GOma-1">
          <mxGeometry y="519" width="170" height="30" as="geometry" />
        </mxCell>
        <mxCell id="tTaD2o-HrxmLArKPDHaH-15" value="&lt;font face=&quot;Times New Roman&quot;&gt;regionid INT&lt;br&gt;&lt;/font&gt;" style="text;html=1;align=center;verticalAlign=middle;whiteSpace=wrap;rounded=0;" vertex="1" parent="EPe0qUNadaAKurA8GOma-1">
          <mxGeometry x="-0.25" y="583" width="91.5" height="30" as="geometry" />
        </mxCell>
        <mxCell id="tTaD2o-HrxmLArKPDHaH-16" value="&lt;font face=&quot;Times New Roman&quot;&gt;regionexpires DATE&lt;br&gt;&lt;/font&gt;" style="text;html=1;align=center;verticalAlign=middle;whiteSpace=wrap;rounded=0;" vertex="1" parent="EPe0qUNadaAKurA8GOma-1">
          <mxGeometry x="6.5" y="603" width="111.5" height="30" as="geometry" />
        </mxCell>
        <mxCell id="EPe0qUNadaAKurA8GOma-21" value="&lt;div align=&quot;center&quot;&gt;membership &lt;/div&gt;" style="swimlane;whiteSpace=wrap;html=1;fontFamily=Times New Roman;align=center;" parent="1" vertex="1">
          <mxGeometry x="30" y="-170" width="220" height="230" as="geometry" />
        </mxCell>
        <mxCell id="EPe0qUNadaAKurA8GOma-28" value="&lt;span style=&quot;color: light-dark(rgb(255, 0, 0), rgb(237, 237, 237));&quot;&gt;PK &lt;/span&gt;&lt;span style=&quot;color: light-dark(rgb(255, 0, 0), rgb(237, 237, 237));&quot;&gt;Code INT&lt;br&gt;&lt;/span&gt;" style="text;html=1;align=center;verticalAlign=middle;whiteSpace=wrap;rounded=0;fontFamily=Times New Roman;" parent="EPe0qUNadaAKurA8GOma-21" vertex="1">
          <mxGeometry x="-59" y="19" width="202" height="30" as="geometry" />
        </mxCell>
        <mxCell id="EPe0qUNadaAKurA8GOma-29" value="meaning VARCHAR(100)" style="text;html=1;align=center;verticalAlign=middle;whiteSpace=wrap;rounded=0;fontFamily=Times New Roman;" parent="EPe0qUNadaAKurA8GOma-21" vertex="1">
          <mxGeometry x="-37" y="40" width="222" height="30" as="geometry" />
        </mxCell>
        <mxCell id="EPe0qUNadaAKurA8GOma-30" value="rollup VARCHAR(20)" style="text;html=1;align=center;verticalAlign=middle;whiteSpace=wrap;rounded=0;fontFamily=Times New Roman;" parent="EPe0qUNadaAKurA8GOma-21" vertex="1">
          <mxGeometry x="-38" y="64" width="202" height="30" as="geometry" />
        </mxCell>
        <mxCell id="EPe0qUNadaAKurA8GOma-38" value="division" style="swimlane;whiteSpace=wrap;html=1;fontFamily=Times New Roman;" parent="1" vertex="1">
          <mxGeometry x="634" y="-170" width="230" height="190" as="geometry" />
        </mxCell>
        <mxCell id="EPe0qUNadaAKurA8GOma-39" value="&lt;span style=&quot;color: rgb(255, 0, 0);&quot;&gt;PK &lt;/span&gt;&lt;span style=&quot;color: rgb(255, 0, 0);&quot;&gt;Div_No INT&lt;br&gt;&lt;/span&gt;" style="text;html=1;align=center;verticalAlign=middle;whiteSpace=wrap;rounded=0;fontFamily=Times New Roman;" parent="EPe0qUNadaAKurA8GOma-38" vertex="1">
          <mxGeometry x="-8" y="21" width="110" height="30" as="geometry" />
        </mxCell>
        <mxCell id="EPe0qUNadaAKurA8GOma-40" value="Div_Name VARCHAR(50)" style="text;html=1;align=center;verticalAlign=middle;whiteSpace=wrap;rounded=0;fontFamily=Times New Roman;" parent="EPe0qUNadaAKurA8GOma-38" vertex="1">
          <mxGeometry x="-28" y="48" width="200" height="30" as="geometry" />
        </mxCell>
        <mxCell id="EPe0qUNadaAKurA8GOma-41" value="superintendent VARCHAR(50)" style="text;html=1;align=center;verticalAlign=middle;whiteSpace=wrap;rounded=0;fontFamily=Times New Roman;" parent="EPe0qUNadaAKurA8GOma-38" vertex="1">
          <mxGeometry x="-29" y="73" width="220" height="30" as="geometry" />
        </mxCell>
        <mxCell id="EPe0qUNadaAKurA8GOma-44" value="" style="endArrow=none;html=1;rounded=0;entryX=-0.016;entryY=0.59;entryDx=0;entryDy=0;entryPerimeter=0;startArrow=ERoneToMany;startFill=0;fontFamily=Times New Roman;exitX=0.213;exitY=1.007;exitDx=0;exitDy=0;exitPerimeter=0;" parent="1" source="EPe0qUNadaAKurA8GOma-13" edge="1">
          <mxGeometry width="50" height="50" relative="1" as="geometry">
            <mxPoint x="340" y="-329" as="sourcePoint" />
            <mxPoint x="170" y="-328.8" as="targetPoint" />
          </mxGeometry>
        </mxCell>
        <mxCell id="EPe0qUNadaAKurA8GOma-45" value="" style="endArrow=none;html=1;rounded=0;exitX=0.636;exitY=0.004;exitDx=0;exitDy=0;exitPerimeter=0;entryX=0.7;entryY=0;entryDx=0;entryDy=0;entryPerimeter=0;startArrow=ERone;startFill=0;fontFamily=Times New Roman;" parent="1" source="EPe0qUNadaAKurA8GOma-21" edge="1">
          <mxGeometry width="50" height="50" relative="1" as="geometry">
            <mxPoint x="150" y="-200" as="sourcePoint" />
            <mxPoint x="170" y="-330" as="targetPoint" />
          </mxGeometry>
        </mxCell>
        <mxCell id="EPe0qUNadaAKurA8GOma-47" value="" style="endArrow=none;html=1;rounded=0;startArrow=ERoneToMany;startFill=0;fontFamily=Times New Roman;exitX=0.995;exitY=0.477;exitDx=0;exitDy=0;exitPerimeter=0;" parent="1" edge="1" source="EPe0qUNadaAKurA8GOma-1">
          <mxGeometry width="50" height="50" relative="1" as="geometry">
            <mxPoint x="620" y="-320" as="sourcePoint" />
            <mxPoint x="760" y="-320" as="targetPoint" />
          </mxGeometry>
        </mxCell>
        <mxCell id="EPe0qUNadaAKurA8GOma-48" value="" style="endArrow=none;html=1;rounded=0;exitX=0.545;exitY=-0.001;exitDx=0;exitDy=0;exitPerimeter=0;startArrow=ERone;startFill=0;fontFamily=Times New Roman;" parent="1" source="EPe0qUNadaAKurA8GOma-38" edge="1">
          <mxGeometry width="50" height="50" relative="1" as="geometry">
            <mxPoint x="760" y="-180" as="sourcePoint" />
            <mxPoint x="760" y="-320" as="targetPoint" />
          </mxGeometry>
        </mxCell>
        <mxCell id="k1RfW5B2Y3QQbC1sZdJO-1" value="&lt;div&gt;many to one&amp;nbsp;&lt;/div&gt;&lt;div&gt;many members can have one membership type&lt;/div&gt;" style="ellipse;whiteSpace=wrap;html=1;fontFamily=Times New Roman;" parent="1" vertex="1">
          <mxGeometry x="140" y="-430" width="170" height="80" as="geometry" />
        </mxCell>
        <mxCell id="k1RfW5B2Y3QQbC1sZdJO-5" value="&lt;div&gt;many to one&lt;/div&gt;&lt;div&gt;many members can have only one division &lt;br&gt;&lt;/div&gt;" style="ellipse;whiteSpace=wrap;html=1;fontFamily=Times New Roman;" parent="1" vertex="1">
          <mxGeometry x="620" y="-410" width="160" height="80" as="geometry" />
        </mxCell>
      </root>
    </mxGraphModel>
  </diagram>
</mxfile>
